<svg width="100" height="100" viewBox="0 0 100 100" fill="none" xmlns="http://www.w3.org/2000/svg">
<path d="M14.4303 14.8062L15.1403 14.595C19.8223 13.5966 22.4319 15.4399 24.8497 19.7601C32.6402 34.1031 40.9488 48.1582 49.0464 62.3284C49.3342 62.8276 49.6988 63.2885 50.4855 64.4597V61.1572C50.4855 50.1359 50.6006 39.1145 50.3895 28.0932C50.3895 25.2515 51.3682 24.2531 53.901 24.2531H57.5852V79.2636C55.5217 79.4076 53.4509 79.4076 51.3873 79.2636C50.5814 79.1484 49.7755 78.0155 49.2766 77.1707C40.6289 62.6548 32.0007 48.1453 23.3914 33.6423L21.7603 30.935V79.206H9C9 79.0332 9 78.7452 9.11513 78.726C13.5477 77.8043 14.6414 75.0394 14.5647 70.508C14.2385 53.016 14.4303 35.5624 14.4303 17.9936V14.8062Z" fill="black"/>
<path d="M60.0221 42.5517V35.5625C70.4031 34.2377 83.835 44.2029 88.1908 56.3571C90.6032 63.2508 90.603 70.7602 88.1904 77.6539C85.7777 84.5476 81.0959 90.4164 74.9124 94.298C63.3993 101.633 45.1319 100.366 34.9044 89.6898C25.195 79.5517 22.643 63.0198 29.7043 51.9217C31.1818 54.4562 32.6402 56.8563 33.9642 59.3332C34.1632 59.9905 34.1632 60.6921 33.9642 61.3493C32.7941 66.1699 33.1022 71.2312 34.8484 75.874C36.5943 80.5168 39.6975 84.5257 43.7532 87.3784C47.809 90.2309 52.6294 91.795 57.5863 91.8668C62.5433 91.9386 67.4068 90.5147 71.5435 87.7807C75.6801 85.0469 78.8978 81.1295 80.7773 76.5391C82.657 71.9488 83.1112 66.8986 82.0812 62.0461C81.051 57.1937 78.5841 52.7644 75.002 49.3351C71.4199 45.9059 66.8885 43.6357 61.9985 42.8205C61.4037 42.7245 60.8088 42.6669 60.0221 42.5517Z" fill="black"/>
<path d="M66.2967 13.5391C66.3361 14.4319 66.1927 15.3233 65.8757 16.1588C65.5586 16.9942 65.0746 17.7561 64.4529 18.3978C63.8314 19.0395 63.0855 19.5475 62.261 19.8907C61.4365 20.2339 60.5506 20.4052 59.6575 20.3938C56.7409 20.509 53.901 20.3938 50.8692 20.3938C49.3501 20.3335 47.8495 20.7462 46.5744 21.5751C45.2996 22.4038 44.3127 23.6079 43.7503 25.0212C43.2498 26.4544 43.1965 28.006 43.5974 29.4703C43.9984 30.9345 44.8346 32.2423 45.9953 33.22C46.7395 33.9157 47.2265 34.8427 47.3769 35.8505C47.5688 37.7706 47.3769 39.6907 47.3769 41.6108C44.1329 41.2813 41.1088 39.8188 38.835 37.4805C36.5611 35.142 35.1832 32.0768 34.9428 28.823C34.5014 21.3347 39.145 14.4416 46.1488 13.6735C52.8583 13.2925 59.5827 13.2477 66.2967 13.5391Z" fill="black"/>
<path d="M57.1823 9.39173H50.5815V1.11615C54.6302 0.271315 57.8155 4.13069 57.1823 9.39173Z" fill="black"/>
</svg>
